# xmcd
# 
# Track frame offsets:
#     150
#     31438
#     46398
#     63401
#     83123
#     100580
#     116806
#     142507
#     158215
#     179857
#     198287
#     219498
#     242880
#     261336
#     291422
# 
# Disc length: 4237
# 
# Revision: 1
# Processed by: cddbd v1.5.2PL0 Copyright (c) Steve Scherf et al.
# Submitted via: fre:ac v1.0.17
# 
DISCID=de108b0f
DTITLE=The Eastern - The Territory
DYEAR=2014
DGENRE=Folk/Rock
TTITLE0=The Territory
TTITLE1=The Road To Erewhon
TTITLE2=The Stepping Razor
TTITLE3=Celtic Jack and Temuka Tom
TTITLE4=Rain
TTITLE5=Murder Ballad
TTITLE6=People Like Us
TTITLE7=Rosy
TTITLE8=Talking Americana Cowboy Yeeha Blues
TTITLE9=Broken Line
TTITLE10=(Blue and The Old Fella Sing) The Ballad of a Little While
TTITLE11=Come Dance With Me
TTITLE12=The Angle
TTITLE13=What It Is
TTITLE14=The Prayer
EXTD=
EXTT0=
EXTT1=
EXTT2=
EXTT3=
EXTT4=
EXTT5=
EXTT6=
EXTT7=
EXTT8=
EXTT9=
EXTT10=
EXTT11=
EXTT12=
EXTT13=
EXTT14=
PLAYORDER=
